<svg width="79" height="38" viewBox="0 0 79 38" fill="none" xmlns="http://www.w3.org/2000/svg">
<path d="M43.7866 21.7791V10.9213V0H51.2937C52.7485 0 53.9596 0.248134 54.9271 0.744402C55.9018 1.24067 56.6328 1.91772 57.1202 2.77556C57.6076 3.6334 57.8513 4.60821 57.8513 5.7C57.8513 6.60746 57.6949 7.38377 57.3821 8.02892C57.0693 8.67407 56.6438 9.19515 56.1055 9.59216C55.5672 9.98918 54.9671 10.2763 54.3051 10.4535V10.6237C55.0253 10.6733 55.7236 10.9215 56.4001 11.3681C57.0766 11.8076 57.633 12.4244 58.0695 13.2185C58.5059 14.0125 58.7241 14.9625 58.7241 16.0685C58.7241 17.1673 58.4732 18.1493 57.9713 19.0142C57.4694 19.872 56.6983 20.5491 55.6581 21.0453C54.6252 21.5345 53.3086 21.7791 51.7083 21.7791H43.7866ZM45.7944 19.9925H51.7083C53.4322 19.9925 54.7052 19.6203 55.5272 18.8759C56.3564 18.1315 56.771 17.1957 56.771 16.0685C56.771 15.239 56.5637 14.4875 56.1491 13.814C55.7418 13.1334 55.1635 12.5946 54.4142 12.1976C53.6723 11.8006 52.7994 11.6021 51.7956 11.6021H45.7944V19.9925ZM45.7944 9.83675H51.4791C52.3593 9.83675 53.1304 9.65951 53.7923 9.30504C54.4542 8.95056 54.9707 8.46138 55.3417 7.8375C55.7127 7.21362 55.8982 6.50112 55.8982 5.7C55.8982 4.5444 55.5126 3.60504 54.7416 2.8819C53.9705 2.15168 52.8212 1.78657 51.2937 1.78657H45.7944V9.83675Z" fill="white"/>
<path d="M63.6478 21.7791V0H70.8601C72.4458 0 73.7697 0.280037 74.8317 0.840113C75.901 1.3931 76.7048 2.16231 77.2431 3.14776C77.7886 4.12612 78.0614 5.24981 78.0614 6.51884C78.0614 7.78787 77.7886 8.90802 77.2431 9.87929C76.7048 10.8506 75.9047 11.6091 74.8426 12.155C73.7806 12.7009 72.464 12.9739 70.8928 12.9739H64.7498V11.1554H70.8382C72.0021 11.1554 72.9696 10.9675 73.7406 10.5918C74.5189 10.216 75.0972 9.68078 75.4755 8.98601C75.861 8.29123 76.0538 7.46884 76.0538 6.51884C76.0538 5.56884 75.861 4.73937 75.4755 4.03041C75.09 3.31437 74.508 2.76138 73.7297 2.37145C72.9586 1.98153 71.9839 1.78657 70.8055 1.78657H65.6882V21.7791H63.6478ZM73.5006 11.953L78.9998 21.7791H76.643L71.1983 11.953H73.5006Z" fill="white"/>
<path d="M43.7866 38V23.937L52.0347 23.9343V25.0881H44.9809V30.3834H51.5908V31.5372H44.9809V36.8462H52.1756V38H43.7866Z" fill="white"/>
<path d="M55.1688 38H53.7877L59.0375 23.9343H60.4469L65.6967 38H64.3156L59.7915 25.6033H59.6929L55.1688 38ZM56.1624 32.6086H63.322V33.7624H56.1624V32.6086Z" fill="white"/>
<path d="M72.1006 38H67.8725V23.9343H72.3542C73.7307 23.9343 74.9075 24.2136 75.8847 24.7722C76.8665 25.3308 77.6182 26.1321 78.1397 27.176C78.6611 28.22 78.9218 29.4722 78.9218 30.9328C78.9218 32.4072 78.6541 33.6732 78.1185 34.7308C77.5877 35.7839 76.8125 36.5921 75.7931 37.1552C74.7783 37.7184 73.5475 38 72.1006 38ZM69.1902 36.8462H72.023C73.2633 36.8462 74.3015 36.6081 75.1377 36.1319C75.9739 35.6557 76.6011 34.9758 77.0192 34.0921C77.4373 33.2084 77.6464 32.1553 77.6464 30.9328C77.6417 29.7195 77.435 28.6755 77.0263 27.801C76.6222 26.9265 76.0209 26.2557 75.2223 25.7887C74.4283 25.3217 73.4465 25.0881 72.2767 25.0881H69.1902V36.8462Z" fill="white"/>
<mask id="mask0_157_334" style="mask-type:alpha" maskUnits="userSpaceOnUse" x="0" y="0" width="41" height="38">
<path fill-rule="evenodd" clip-rule="evenodd" d="M36.554 15.3923C38.7979 13.808 40.1124 11.8848 40.1124 9.81148C40.1124 4.39274 31.133 0 20.0562 0C8.97945 0 0 4.39274 0 9.81148C0 11.9826 1.44151 13.989 3.88187 15.6141V38H36.554V15.3923Z" fill="white"/>
</mask>
<g mask="url(#mask0_157_334)">
<path d="M36.5538 15.3927L35.4778 13.9375C34.9999 14.2751 34.7166 14.8163 34.7166 15.3927H36.5538ZM3.88168 15.6145H5.71889C5.71889 15.0207 5.41844 14.4653 4.9163 14.131L3.88168 15.6145ZM3.88168 38.0004H2.04447C2.04447 38.9919 2.86702 39.7956 3.88168 39.7956V38.0004ZM36.5538 38.0004V39.7956C37.5686 39.7956 38.3911 38.9919 38.3911 38.0004H36.5538ZM38.275 9.81183C38.275 11.0821 37.4691 12.5313 35.4778 13.9375L37.6298 16.8478C40.126 15.0853 41.9494 12.6882 41.9494 9.81183H38.275ZM20.056 1.79563C25.3707 1.79563 30.0914 2.85328 33.4156 4.47942C36.8487 6.15899 38.275 8.14761 38.275 9.81183H41.9494C41.9494 6.05731 38.8859 3.1402 35.0602 1.26873C31.1255 -0.656199 25.8181 -1.79492 20.056 -1.79492V1.79563ZM1.83702 9.81183C1.83702 8.14761 3.26327 6.15899 6.69659 4.47942C10.0207 2.85328 14.7413 1.79563 20.056 1.79563V-1.79492C14.2939 -1.79492 8.98655 -0.656199 5.05167 1.26873C1.22607 3.1402 -1.8374 6.05731 -1.8374 9.81183H1.83702ZM4.9163 14.131C2.72423 12.6711 1.83702 11.1415 1.83702 9.81183H-1.8374C-1.8374 12.8243 0.158409 15.3075 2.84704 17.098L4.9163 14.131ZM5.71889 38.0004V15.6145H2.04447V38.0004H5.71889ZM36.5538 36.2051H3.88168V39.7956H36.5538V36.2051ZM34.7166 15.3927V38.0004H38.3911V15.3927H34.7166Z" fill="white"/>
<path d="M30.5695 22.7373V32.5489H25.2319" stroke="white" stroke-linecap="round" stroke-linejoin="round"/>
<path d="M10.4754 9.58301C10.9011 9.58301 11.2462 9.25072 11.2462 8.84082C11.2462 8.43092 10.9011 8.09863 10.4754 8.09863C10.0497 8.09863 9.70459 8.43092 9.70459 8.84082C9.70459 9.25072 10.0497 9.58301 10.4754 9.58301Z" fill="white"/>
<path d="M11.1224 15.1895C11.5481 15.1895 11.8932 14.8572 11.8932 14.4473C11.8932 14.0374 11.5481 13.7051 11.1224 13.7051C10.6967 13.7051 10.3516 14.0374 10.3516 14.4473C10.3516 14.8572 10.6967 15.1895 11.1224 15.1895Z" fill="white"/>
<path d="M12.7396 19.5498C13.1653 19.5498 13.5104 19.2175 13.5104 18.8076C13.5104 18.3977 13.1653 18.0654 12.7396 18.0654C12.3139 18.0654 11.9688 18.3977 11.9688 18.8076C11.9688 19.2175 12.3139 19.5498 12.7396 19.5498Z" fill="white"/>
<path d="M16.9451 16.4355C17.3708 16.4355 17.7159 16.1033 17.7159 15.6934C17.7159 15.2835 17.3708 14.9512 16.9451 14.9512C16.5194 14.9512 16.1743 15.2835 16.1743 15.6934C16.1743 16.1033 16.5194 16.4355 16.9451 16.4355Z" fill="white"/>
<path d="M15.9744 11.1396C16.4001 11.1396 16.7452 10.8074 16.7452 10.3975C16.7452 9.98756 16.4001 9.65527 15.9744 9.65527C15.5487 9.65527 15.2036 9.98756 15.2036 10.3975C15.2036 10.8074 15.5487 11.1396 15.9744 11.1396Z" fill="white"/>
<path d="M17.9153 6.7793C18.341 6.7793 18.6862 6.44701 18.6862 6.03711C18.6862 5.62721 18.341 5.29492 17.9153 5.29492C17.4896 5.29492 17.1445 5.62721 17.1445 6.03711C17.1445 6.44701 17.4896 6.7793 17.9153 6.7793Z" fill="white"/>
<path d="M23.0911 9.58301C23.5168 9.58301 23.8619 9.25072 23.8619 8.84082C23.8619 8.43092 23.5168 8.09863 23.0911 8.09863C22.6654 8.09863 22.3203 8.43092 22.3203 8.84082C22.3203 9.25072 22.6654 9.58301 23.0911 9.58301Z" fill="white"/>
<path d="M22.7679 14.8779C23.1936 14.8779 23.5387 14.5456 23.5387 14.1357C23.5387 13.7258 23.1936 13.3936 22.7679 13.3936C22.3422 13.3936 21.9971 13.7258 21.9971 14.1357C21.9971 14.5456 22.3422 14.8779 22.7679 14.8779Z" fill="white"/>
<path d="M26.973 12.3857C27.3987 12.3857 27.7438 12.0535 27.7438 11.6436C27.7438 11.2337 27.3987 10.9014 26.973 10.9014C26.5473 10.9014 26.2021 11.2337 26.2021 11.6436C26.2021 12.0535 26.5473 12.3857 26.973 12.3857Z" fill="white"/>
<path d="M30.2078 10.2061C30.6335 10.2061 30.9786 9.87377 30.9786 9.46387C30.9786 9.05397 30.6335 8.72168 30.2078 8.72168C29.7821 8.72168 29.437 9.05397 29.437 9.46387C29.437 9.87377 29.7821 10.2061 30.2078 10.2061Z" fill="white"/>
<path d="M26.0027 7.09082C26.4285 7.09082 26.7736 6.75853 26.7736 6.34863C26.7736 5.93873 26.4285 5.60645 26.0027 5.60645C25.577 5.60645 25.2319 5.93873 25.2319 6.34863C25.2319 6.75853 25.577 7.09082 26.0027 7.09082Z" fill="white"/>
</g>
</svg>
